<svg xmlns="http://www.w3.org/2000/svg" xmlns:xlink="http://www.w3.org/1999/xlink" width="16" height="16" viewBox="0 0 16 16" fill="none"><g opacity="1"  transform="translate(0 0)  rotate(0)"><path id="矩形 3" fill-rule="evenodd" style="fill:#CCCCCC" opacity="0" d="M0 16L16 16L16 0L0 0L0 16Z"></path><g opacity="1"  transform="translate(2 2.501220703125)  rotate(0)"><path  id="路径 1" style="fill:#646566; opacity:1;" d="M11.78,3.97993h-11.78003c-0.05253,0 -0.10455,-0.00512 -0.15607,-0.01537c-0.05152,-0.01025 -0.10154,-0.02542 -0.15007,-0.04553c-0.04853,-0.0201 -0.09463,-0.04474 -0.13831,-0.07392c-0.04368,-0.02919 -0.08409,-0.06235 -0.12123,-0.09949c-0.03714,-0.03715 -0.07031,-0.07756 -0.09949,-0.12123c-0.02918,-0.04368 -0.05383,-0.08978 -0.07393,-0.13831c-0.0201,-0.04853 -0.03528,-0.09856 -0.04553,-0.15008c-0.01025,-0.05152 -0.01537,-0.10354 -0.01537,-0.15607c0,-0.05253 0.00512,-0.10455 0.01537,-0.15607c0.01025,-0.05152 0.02542,-0.10155 0.04553,-0.15008c0.0201,-0.04853 0.04474,-0.09463 0.07393,-0.1383c0.02918,-0.04368 0.06235,-0.08409 0.09949,-0.12123c0.03714,-0.03715 0.07755,-0.07031 0.12123,-0.09949c0.04368,-0.02919 0.08978,-0.05383 0.13831,-0.07393c0.04853,-0.0201 0.09855,-0.03528 0.15007,-0.04553c0.05152,-0.01025 0.10354,-0.01537 0.15607,-0.01537h11.78003c0.05253,0 0.10457,0.00512 0.1561,0.01537c0.05153,0.01025 0.10157,0.02543 0.1501,0.04553c0.04853,0.0201 0.09463,0.04474 0.1383,0.07393c0.04367,0.02918 0.08407,0.06234 0.1212,0.09949c0.03713,0.03714 0.0703,0.07755 0.0995,0.12123c0.0292,0.04367 0.05383,0.08977 0.0739,0.1383c0.02013,0.04853 0.03533,0.09856 0.0456,0.15008c0.0102,0.05152 0.0153,0.10354 0.0153,0.15607c0,0.05253 -0.0051,0.10455 -0.0153,0.15607c-0.01027,0.05152 -0.02547,0.10155 -0.0456,0.15008c-0.02007,0.04853 -0.0447,0.09463 -0.0739,0.13831c-0.0292,0.04367 -0.06237,0.08408 -0.0995,0.12123c-0.03713,0.03714 -0.07753,0.0703 -0.1212,0.09949c-0.04367,0.02918 -0.08977,0.05382 -0.1383,0.07392c-0.04853,0.02011 -0.09857,0.03528 -0.1501,0.04553c-0.05153,0.01025 -0.10357,0.01537 -0.1561,0.01537z"></path><path  id="路径 2" style="fill:#646566; opacity:1;" d="M9.0783,-0.57288l3.26,3.1776c0.0376,0.03666 0.07127,0.07664 0.101,0.11994c0.02973,0.0433 0.05497,0.08908 0.0757,0.13735c0.02073,0.04827 0.03657,0.0981 0.0475,0.14948c0.01087,0.05139 0.01663,0.10334 0.0173,0.15587c0.00067,0.05252 -0.00377,0.1046 -0.0133,0.15625c-0.0096,0.05165 -0.02413,0.10186 -0.0436,0.15065c-0.01953,0.04878 -0.0436,0.09519 -0.0722,0.13924c-0.0286,0.04405 -0.06123,0.08488 -0.0979,0.1225c-0.03667,0.03761 -0.07667,0.07129 -0.12,0.10103c-0.04327,0.02974 -0.08903,0.05497 -0.1373,0.07569c-0.04827,0.02072 -0.0981,0.03653 -0.1495,0.04744c-0.0514,0.01091 -0.10337,0.0167 -0.1559,0.01737c-0.05247,0.00067 -0.10453,-0.00378 -0.1562,-0.01337c-0.05167,-0.00959 -0.1019,-0.02412 -0.1507,-0.0436c-0.04873,-0.01948 -0.09513,-0.04353 -0.1392,-0.07215c-0.04407,-0.02863 -0.0849,-0.06127 -0.1225,-0.09793l-3.26,-3.1776c-0.03761,-0.03666 -0.07129,-0.07665 -0.10104,-0.11995c-0.02974,-0.0433 -0.05497,-0.08908 -0.07569,-0.13735c-0.02072,-0.04827 -0.03653,-0.0981 -0.04744,-0.14948c-0.01091,-0.05138 -0.0167,-0.10334 -0.01737,-0.15586c-0.00067,-0.05252 0.00379,-0.10461 0.01338,-0.15626c0.00959,-0.05165 0.02412,-0.10186 0.04359,-0.15064c0.01948,-0.04878 0.04353,-0.0952 0.07216,-0.13924c0.02862,-0.04405 0.06126,-0.08488 0.09793,-0.12249c0.03666,-0.03762 0.07664,-0.07129 0.11994,-0.10103c0.0433,-0.02974 0.08908,-0.05497 0.13735,-0.07569c0.04827,-0.02072 0.0981,-0.03654 0.14948,-0.04744c0.05139,-0.01091 0.10334,-0.0167 0.15587,-0.01737c0.05252,-0.00067 0.1046,0.00378 0.15625,0.01337c0.05165,0.00959 0.10186,0.02412 0.15065,0.0436c0.04878,0.01948 0.09519,0.04353 0.13924,0.07215c0.04405,0.02862 0.08488,0.06127 0.1225,0.09793z"></path><path  id="路径 3" style="fill:#646566; opacity:1;" d="M0.21997,7.02007h11.78003c0.05253,0 0.10457,0.00512 0.1561,0.01537c0.05153,0.01025 0.10157,0.02542 0.1501,0.04552c0.04853,0.02011 0.09463,0.04475 0.1383,0.07393c0.04367,0.02919 0.08407,0.06235 0.1212,0.09949c0.03713,0.03715 0.0703,0.07756 0.0995,0.12123c0.0292,0.04368 0.05383,0.08978 0.0739,0.13831c0.02013,0.04853 0.03533,0.09856 0.0456,0.15008c0.0102,0.05151 0.0153,0.10354 0.0153,0.15607c0,0.05253 -0.0051,0.10455 -0.0153,0.15607c-0.01027,0.05152 -0.02547,0.10154 -0.0456,0.15007c-0.02007,0.04853 -0.0447,0.09464 -0.0739,0.13831c-0.0292,0.04368 -0.06237,0.08409 -0.0995,0.12123c-0.03713,0.03715 -0.07753,0.07031 -0.1212,0.09949c-0.04367,0.02919 -0.08977,0.05383 -0.1383,0.07393c-0.04853,0.0201 -0.09857,0.03528 -0.1501,0.04553c-0.05153,0.01025 -0.10357,0.01537 -0.1561,0.01537h-11.78003c-0.05253,0 -0.10455,-0.00512 -0.15607,-0.01537c-0.05152,-0.01025 -0.10154,-0.02543 -0.15007,-0.04553c-0.04853,-0.0201 -0.09463,-0.04474 -0.13831,-0.07393c-0.04368,-0.02918 -0.08409,-0.06234 -0.12123,-0.09949c-0.03714,-0.03714 -0.07031,-0.07755 -0.09949,-0.12123c-0.02918,-0.04367 -0.05383,-0.08978 -0.07393,-0.13831c-0.0201,-0.04853 -0.03528,-0.09855 -0.04552,-0.15007c-0.01025,-0.05152 -0.01537,-0.10354 -0.01537,-0.15607c0,-0.05253 0.00512,-0.10456 0.01537,-0.15607c0.01025,-0.05152 0.02542,-0.10155 0.04553,-0.15008c0.0201,-0.04853 0.04474,-0.09464 0.07393,-0.13831c0.02918,-0.04367 0.06235,-0.08408 0.09949,-0.12123c0.03714,-0.03714 0.07755,-0.0703 0.12123,-0.09949c0.04368,-0.02918 0.08978,-0.05382 0.13831,-0.07393c0.04853,-0.0201 0.09856,-0.03527 0.15007,-0.04552c0.05152,-0.01025 0.10354,-0.01537 0.15607,-0.01537z"></path><path  id="路径 4" style="fill:#646566; opacity:1;" d="M0.77837,7.24719l3.26002,3.17761c0.03762,0.03667 0.0713,0.07663 0.10104,0.1199c0.02974,0.04333 0.05497,0.08913 0.07569,0.1374c0.02072,0.04827 0.03653,0.09807 0.04744,0.1494c0.01091,0.0514 0.0167,0.10337 0.01737,0.1559c0.00067,0.05253 -0.00378,0.10463 -0.01337,0.1563c-0.00959,0.0516 -0.02412,0.1018 -0.0436,0.1506c-0.01948,0.0488 -0.04353,0.09523 -0.07215,0.1393c-0.02862,0.044 -0.06126,0.0848 -0.09793,0.1224c-0.03667,0.03767 -0.07665,0.07137 -0.11995,0.1011c-0.0433,0.02973 -0.08908,0.05497 -0.13735,0.0757c-0.04827,0.02073 -0.09809,0.03653 -0.14948,0.0474c-0.05138,0.01093 -0.10333,0.01673 -0.15586,0.0174c-0.05253,0.00067 -0.10461,-0.0038 -0.15626,-0.0134c-0.05165,-0.0096 -0.10186,-0.02413 -0.15064,-0.0436c-0.04879,-0.01947 -0.0952,-0.0435 -0.13925,-0.0721c-0.04405,-0.02867 -0.08488,-0.06133 -0.12249,-0.098l-3.26002,-3.17755c-0.03762,-0.03667 -0.07129,-0.07665 -0.10103,-0.11994c-0.02974,-0.0433 -0.05497,-0.08909 -0.07569,-0.13736c-0.02072,-0.04827 -0.03654,-0.09809 -0.04744,-0.14948c-0.01091,-0.05138 -0.0167,-0.10333 -0.01737,-0.15586c-0.00067,-0.05252 0.00378,-0.1046 0.01337,-0.15625c0.00959,-0.05165 0.02412,-0.10186 0.0436,-0.15065c0.01948,-0.04878 0.04353,-0.09519 0.07215,-0.13924c0.02862,-0.04405 0.06127,-0.08488 0.09793,-0.1225c0.03666,-0.03761 0.07665,-0.07129 0.11995,-0.10103c0.0433,-0.02974 0.08908,-0.05497 0.13735,-0.0757c0.04827,-0.02072 0.0981,-0.03653 0.14948,-0.04744c0.05138,-0.01091 0.10334,-0.0167 0.15586,-0.01737c0.05252,-0.00067 0.10461,0.00378 0.15626,0.01337c0.05165,0.00959 0.10186,0.02413 0.15064,0.0436c0.04878,0.01948 0.0952,0.04353 0.13925,0.07216c0.04405,0.02862 0.08488,0.06126 0.12249,0.09793z"></path></g></g></svg>