<?xml version="1.0" standalone="no"?><!DOCTYPE svg PUBLIC "-//W3C//DTD SVG 1.1//EN" "http://www.w3.org/Graphics/SVG/1.1/DTD/svg11.dtd"><svg t="1692770729926" class="icon" viewBox="0 0 1592 1024" version="1.1" xmlns="http://www.w3.org/2000/svg" p-id="20977" width="24.875" height="16" xmlns:xlink="http://www.w3.org/1999/xlink"><path d="M1416.533333 318.577778v-51.2h-261.688889V199.111111h-51.2v204.8h-199.111111V625.777778h455.111111V403.911111h-210.488888V318.577778h267.377777zM1314.133333 455.111111v119.466667h-358.4V455.111111h358.4zM477.866667 768v-56.888889h238.933333v-39.822222H477.866667V625.777778h216.177777V403.911111H477.866667v-45.511111h278.755555v-39.822222H477.866667v-51.2c79.644444-5.688889 153.6-17.066667 216.177777-22.755556l-28.444444-39.822222c-108.088889 17.066667-301.511111 34.133333-460.8 34.133333 5.688889 11.377778 11.377778 28.444444 11.377778 39.822223 68.266667 0 142.222222-5.688889 210.488889-11.377778v51.2H153.6v45.511111h273.066667v39.822222H221.866667v210.488889h204.8v45.511111h-227.555556v39.822222h227.555556v56.888889H147.911111v39.822222h614.4v-39.822222l-284.444444 11.377778z m0-329.955556h159.288889v51.2H477.866667v-51.2z m0 91.022223h159.288889v51.2H477.866667v-51.2z m-51.2 51.2H273.066667v-51.2h153.6v51.2z m0-85.333334H273.066667v-56.888889h153.6v56.888889zM1393.777778 824.888889l51.2-22.755556c-17.066667-34.133333-56.888889-91.022222-91.022222-136.533333l-45.511112 17.066667c34.133333 45.511111 73.955556 102.4 85.333334 142.222222zM870.4 830.577778C910.222222 796.444444 944.355556 739.555556 967.111111 682.666667l-51.2-11.377778c-22.755556 51.2-56.888889 102.4-91.022222 136.533333l45.511111 22.755556zM1171.911111 688.355556c17.066667 45.511111 39.822222 102.4 45.511111 136.533333l51.2-17.066667c-5.688889-34.133333-28.444444-91.022222-51.2-130.844444l-45.511111 11.377778zM1029.688889 688.355556c11.377778 45.511111 17.066667 102.4 17.066667 136.533333l51.2-5.688889c-5.688889-34.133333-11.377778-91.022222-22.755556-136.533333l-45.511111 5.688889z" fill="#FF6600" p-id="20978"></path><path d="M1490.488889 0H102.4C51.2 0 0 51.2 0 108.088889v807.822222C0 978.488889 51.2 1024 102.4 1024h1382.4c62.577778 0 102.4-51.2 102.4-108.088889V108.088889c5.688889-56.888889-39.822222-108.088889-96.711111-108.088889z m45.511111 915.911111c0 28.444444-22.755556 51.2-51.2 51.2H102.4c-22.755556 0-45.511111-22.755556-45.511111-51.2V108.088889c0-28.444444 22.755556-51.2 45.511111-51.2h1382.4c28.444444 0 51.2 22.755556 51.2 51.2v807.822222z" fill="#FF6600" p-id="20979"></path></svg>